<svg xmlns="http://www.w3.org/2000/svg" width="179" height="195.986" viewBox="0 0 179 195.986"><g id="logotipo-gold-glove-rodape" transform="translate(-2 -2)"><path id="Caminho_6403" data-name="Caminho 6403" d="M33.24,166.13c-19.09-9.89-30.63-26.3-30.77-41.85L2,73.26C3,55.97,9.94,41.69,24.35,33.18L67.1,7.95C74.46,3.6,83.73,2.11,91.5,2c7.77.11,17.04,1.6,24.4,5.95l42.75,25.23C173.06,41.69,180,55.97,181,73.26l-.46,51.02c-.09,9.47-4.03,19.13-11.41,27.46l-1.63-2.44c6.69-7.93,10.26-17,10.34-25.91l.45-49.9c-.98-16.91-7.77-30.88-21.86-39.19L114.63,9.62c-7.2-4.25-15.53-5.66-23.12-5.77-7.6.11-15.92,1.52-23.12,5.77L26.57,34.3C12.48,42.62,5.7,56.59,4.71,73.49l.45,49.9c.14,15.21,10.43,30.88,29.09,40.55Z" fill="#d6b36a" fill-rule="evenodd"></path><path id="Caminho_6404" data-name="Caminho 6404" d="M97.04,191.41a49.625,49.625,0,0,0,16.02-4.14l-.84-1.88a45.131,45.131,0,0,1-15.19,4.16Zm-26.09-5.93-.89,1.82a49.934,49.934,0,0,0,16.16,4.14v-1.86A45.346,45.346,0,0,1,70.95,185.48Z" fill="#d6b36a" fill-rule="evenodd"></path><path id="Caminho_6405" data-name="Caminho 6405" d="M53.9,120.06v2.17a11.028,11.028,0,0,0,10.99,10.99h61.44a11.2,11.2,0,0,0,11.1-11.03l.11-24.93c0-3.01-2.79-3.73-5.34-3.73l-26.71.08h-.02a.423.423,0,0,0-.27.07c-.43.32-.54,1.34-.52,1.82s.2,1.53.65,1.8a.254.254,0,0,0,.15.03h.03l5.51.05a14.622,14.622,0,0,1,9.98,3.68c4.3,3.92,5.53,10.01,5.6,15.59l.03,2.2-14.39-.01v-6.16c0-.8-.94-1.05-1.59-1.05h-5.14a14.373,14.373,0,0,1-11.6-5.39,18.143,18.143,0,0,1-.22-21.43,14.375,14.375,0,0,1,11.82-5.58h0l20.75.06V50.03a11.028,11.028,0,0,0-10.99-10.99H64.89A11.028,11.028,0,0,0,53.9,50.03Zm-4.33,2.16V50.03A15.36,15.36,0,0,1,64.89,34.71h50.38a15.36,15.36,0,0,1,15.32,15.32V83.62l-25.1-.08a10.07,10.07,0,0,0-8.37,3.88,13.8,13.8,0,0,0,.17,16.09,10.073,10.073,0,0,0,8.21,3.76h5.14c3.13,0,5.93,2.11,5.93,5.39v1.82h5.58c-.3-3.73-1.33-7.72-4.09-10.24a10.315,10.315,0,0,0-7.06-2.55h-.01l-5.48-.05a4.547,4.547,0,0,1-2.41-.65,7.106,7.106,0,0,1-.5-10.81,4.65,4.65,0,0,1,2.92-.93l26.68-.08c3.29,0,6.74.98,8.57,3.94a7.832,7.832,0,0,1,1.12,4.14v.01l-.11,24.96v.01a15.54,15.54,0,0,1-15.43,15.32H64.89A15.362,15.362,0,0,1,49.57,122.22Z" fill="#d6b36a" fill-rule="evenodd"></path><path id="Caminho_6406" data-name="Caminho 6406" d="M125.37,157.85H62.3V144.63a16.612,16.612,0,0,0,7.23,1.14h55.84v12.08Zm2.49,2.55H59.81V141.81c2.05,1.31,5.2,1.73,7.8,1.6h60.25Z" fill="#d6b36a" fill-rule="evenodd"></path><text id="G" transform="translate(67.155 155.31)" fill="#d6b36a" font-size="8" font-family="SegoeUI-Bold, Segoe UI" font-weight="700"><tspan x="0" y="0">G</tspan></text><text id="O" transform="translate(73.232 155.31)" fill="#d6b36a" font-size="8" font-family="SegoeUI-Bold, Segoe UI" font-weight="700"><tspan x="0" y="0">O</tspan></text><text id="L" transform="translate(79.471 155.31)" fill="#d6b36a" font-size="8" font-family="SegoeUI-Bold, Segoe UI" font-weight="700"><tspan x="0" y="0">L</tspan></text><text id="D" transform="translate(84.434 155.31)" fill="#d6b36a" font-size="8" font-family="SegoeUI-Bold, Segoe UI" font-weight="700"><tspan x="0" y="0">D</tspan></text><text id="G-2" data-name="G" transform="translate(92.56 155.31)" fill="#d6b36a" font-size="8" font-family="SegoeUI-Bold, Segoe UI" font-weight="700"><tspan x="0" y="0">G</tspan></text><text id="L-2" data-name="L" transform="translate(98.8 155.31)" fill="#d6b36a" font-size="8" font-family="SegoeUI-Bold, Segoe UI" font-weight="700"><tspan x="0" y="0">L</tspan></text><text id="O-2" data-name="O" transform="translate(103.356 155.31)" fill="#d6b36a" font-size="8" font-family="SegoeUI-Bold, Segoe UI" font-weight="700"><tspan x="0" y="0">O</tspan></text><text id="V" transform="translate(109.839 155.31)" fill="#d6b36a" font-size="8" font-family="SegoeUI-Bold, Segoe UI" font-weight="700"><tspan x="0" y="0">V</tspan></text><text id="E" transform="translate(115.503 155.31)" fill="#d6b36a" font-size="8" font-family="SegoeUI-Bold, Segoe UI" font-weight="700"><tspan x="0" y="0">E</tspan></text><text id="B" transform="translate(33.492 169.458) rotate(28.803)" fill="#d6b36a" font-size="9.78" font-family="SegoeUI-Bold, Segoe UI" font-weight="700"><tspan x="0" y="0">B</tspan></text><text id="O-3" data-name="O" transform="translate(39.681 172.861) rotate(28.803)" fill="#d6b36a" font-size="9.78" font-family="SegoeUI-Bold, Segoe UI" font-weight="700"><tspan x="0" y="0">O</tspan></text><text id="X" transform="translate(46.347 176.526) rotate(28.803)" fill="#d6b36a" font-size="9.78" font-family="SegoeUI-Bold, Segoe UI" font-weight="700"><tspan x="0" y="0">X</tspan></text><text id="I" transform="translate(52.064 179.669) rotate(28.803)" fill="#d6b36a" font-size="9.78" font-family="SegoeUI-Bold, Segoe UI" font-weight="700"><tspan x="0" y="0">I</tspan></text><text id="N" transform="translate(54.445 180.978) rotate(28.803)" fill="#d6b36a" font-size="9.78" font-family="SegoeUI-Bold, Segoe UI" font-weight="700"><tspan x="0" y="0">N</tspan></text><text id="G-3" data-name="G" transform="translate(60.635 184.381) rotate(28.803)" fill="#d6b36a" font-size="9.78" font-family="SegoeUI-Bold, Segoe UI" font-weight="700"><tspan x="0" y="0">G</tspan></text><text id="_" data-name="&amp;" transform="translate(87.09 194.986)" fill="#d6b36a" font-size="12.62" font-family="SegoeUI-Bold, Segoe UI" font-weight="700"><tspan x="0" y="0">&amp;</tspan></text><text id="K" transform="matrix(0.847, -0.531, 0.531, 0.847, 116.446, 186.978)" fill="#d6b36a" font-size="9.43" font-family="SegoeUI-Bold, Segoe UI" font-weight="700"><tspan x="0" y="0">K</tspan></text><text id="I-2" data-name="I" transform="matrix(0.847, -0.531, 0.531, 0.847, 122.22, 183.36)" fill="#d6b36a" font-size="9.43" font-family="SegoeUI-Bold, Segoe UI" font-weight="700"><tspan x="0" y="0">I</tspan></text><text id="C" transform="matrix(0.847, -0.531, 0.531, 0.847, 124.441, 181.968)" fill="#d6b36a" font-size="9.43" font-family="SegoeUI-Bold, Segoe UI" font-weight="700"><tspan x="0" y="0">C</tspan></text><text id="K-2" data-name="K" transform="matrix(0.847, -0.531, 0.531, 0.847, 130.216, 178.349)" fill="#d6b36a" font-size="9.43" font-family="SegoeUI-Bold, Segoe UI" font-weight="700"><tspan x="0" y="0">K</tspan></text><text id="B-2" data-name="B" transform="matrix(0.847, -0.531, 0.531, 0.847, 135.99, 174.731)" fill="#d6b36a" font-size="9.43" font-family="SegoeUI-Bold, Segoe UI" font-weight="700"><tspan x="0" y="0">B</tspan></text><text id="O-4" data-name="O" transform="matrix(0.847, -0.531, 0.531, 0.847, 141.764, 171.113)" fill="#d6b36a" font-size="9.43" font-family="SegoeUI-Bold, Segoe UI" font-weight="700"><tspan x="0" y="0">O</tspan></text><text id="X-2" data-name="X" transform="matrix(0.847, -0.531, 0.531, 0.847, 147.984, 167.215)" fill="#d6b36a" font-size="9.43" font-family="SegoeUI-Bold, Segoe UI" font-weight="700"><tspan x="0" y="0">X</tspan></text><text id="I-3" data-name="I" transform="matrix(0.847, -0.531, 0.531, 0.847, 153.317, 163.874)" fill="#d6b36a" font-size="9.43" font-family="SegoeUI-Bold, Segoe UI" font-weight="700"><tspan x="0" y="0">I</tspan></text><text id="N-2" data-name="N" transform="matrix(0.847, -0.531, 0.531, 0.847, 155.539, 162.482)" fill="#d6b36a" font-size="9.43" font-family="SegoeUI-Bold, Segoe UI" font-weight="700"><tspan x="0" y="0">N</tspan></text><text id="G-4" data-name="G" transform="matrix(0.847, -0.531, 0.531, 0.847, 161.313, 158.863)" fill="#d6b36a" font-size="9.43" font-family="SegoeUI-Bold, Segoe UI" font-weight="700"><tspan x="0" y="0">G</tspan></text></g></svg>