<svg xmlns="http://www.w3.org/2000/svg" width="233" height="100.389" viewBox="0 0 233 100.389"><g id="logo-gold-glove" transform="translate(-313 -20)"><text id="GOLD_GLOVE" data-name="GOLD GLOVE" transform="translate(414 58)" fill="#d2ac67" font-size="20" font-family="SegoeUI, Segoe UI"><tspan x="0" y="22">GOLD GLOVE</tspan></text><g id="logotipo-gold-glove-header-100" transform="translate(310.63 17.07)"><path id="Caminho_6426" data-name="Caminho 6426" d="M18.3,86.61C8.56,81.56,2.68,73.2,2.61,65.27L2.37,39.26c.51-8.81,4.05-16.1,11.4-20.43L35.56,5.96C39.31,3.74,44.04,2.99,48,2.93c3.96.06,8.69.82,12.44,3.03L82.23,18.82c7.34,4.34,10.88,11.62,11.4,20.43l-.24,26.01a21.545,21.545,0,0,1-5.82,14l-.83-1.24a20.926,20.926,0,0,0,5.27-13.21l.23-25.44c-.5-8.62-3.96-15.74-11.14-19.98L59.79,6.82A23.881,23.881,0,0,0,48,3.87,23.869,23.869,0,0,0,36.21,6.81L14.9,19.4C7.71,23.64,4.25,30.76,3.75,39.38l.23,25.44c.07,7.75,5.32,15.74,14.83,20.67Z" fill="#d6b36a" fill-rule="evenodd"></path><path id="Caminho_6427" data-name="Caminho 6427" d="M50.82,99.5a25.411,25.411,0,0,0,8.17-2.11l-.43-.96a22.988,22.988,0,0,1-7.74,2.12Zm-13.3-3.03-.45.93a25.437,25.437,0,0,0,8.24,2.11v-.95A22.971,22.971,0,0,1,37.52,96.47Z" fill="#d6b36a" fill-rule="evenodd"></path><path id="Caminho_6428" data-name="Caminho 6428" d="M28.83,63.12v1.11a5.616,5.616,0,0,0,5.6,5.6H65.75a5.705,5.705,0,0,0,5.66-5.62l.06-12.71c0-1.53-1.42-1.9-2.72-1.9l-13.62.04h-.01a.223.223,0,0,0-.14.03c-.22.16-.27.68-.27.93s.1.78.33.92a.185.185,0,0,0,.07.02h.01l2.81.03a7.453,7.453,0,0,1,5.09,1.88c2.19,2,2.82,5.1,2.86,7.95l.01,1.12H58.55V59.38c0-.41-.48-.54-.81-.54H55.12a7.331,7.331,0,0,1-5.92-2.75,8.961,8.961,0,0,1-1.84-5.37,8.858,8.858,0,0,1,1.73-5.56,7.314,7.314,0,0,1,6.03-2.84h0l10.58.03V27.45a5.616,5.616,0,0,0-5.6-5.6H34.43a5.616,5.616,0,0,0-5.6,5.6Zm-2.21,1.1V27.42a7.827,7.827,0,0,1,7.81-7.81H60.11a7.827,7.827,0,0,1,7.81,7.81V44.54l-12.8-.04a5.142,5.142,0,0,0-4.27,1.98,7.061,7.061,0,0,0,.09,8.21,5.182,5.182,0,0,0,4.2,1.91h2.62a2.838,2.838,0,0,1,3.02,2.75v.93h2.85a7.788,7.788,0,0,0-2.09-5.22,5.274,5.274,0,0,0-3.6-1.3h-.01l-2.8-.03a2.387,2.387,0,0,1-1.23-.33,3.248,3.248,0,0,1-1.4-2.74,3.3,3.3,0,0,1,1.15-2.77,2.478,2.478,0,0,1,1.49-.48l13.6-.04a4.892,4.892,0,0,1,4.37,2.01,4.006,4.006,0,0,1,.57,2.11h0l-.06,12.73v.01a7.918,7.918,0,0,1-7.87,7.81H34.43A7.836,7.836,0,0,1,26.62,64.22Z" fill="#d6b36a" fill-rule="evenodd"></path><path id="Caminho_6429" data-name="Caminho 6429" d="M65.27,82.39H33.11V75.65a8.488,8.488,0,0,0,3.69.58H65.27Zm1.27,1.3H31.84V74.21a7.257,7.257,0,0,0,3.98.82H66.54Z" fill="#d6b36a" fill-rule="evenodd"></path><text id="G" transform="translate(35.589 81.092)" fill="#d6b36a" font-size="4" font-family="SegoeUI-Bold, Segoe UI" font-weight="700"><tspan x="0" y="0">G</tspan></text><text id="O" transform="translate(38.687 81.092)" fill="#d6b36a" font-size="4" font-family="SegoeUI-Bold, Segoe UI" font-weight="700"><tspan x="0" y="0">O</tspan></text><text id="L" transform="translate(41.867 81.092)" fill="#d6b36a" font-size="4" font-family="SegoeUI-Bold, Segoe UI" font-weight="700"><tspan x="0" y="0">L</tspan></text><text id="D" transform="translate(44.397 81.092)" fill="#d6b36a" font-size="4" font-family="SegoeUI-Bold, Segoe UI" font-weight="700"><tspan x="0" y="0">D</tspan></text><text id="G-2" data-name="G" transform="translate(48.54 81.092)" fill="#d6b36a" font-size="4" font-family="SegoeUI-Bold, Segoe UI" font-weight="700"><tspan x="0" y="0">G</tspan></text><text id="L-2" data-name="L" transform="translate(51.723 81.092)" fill="#d6b36a" font-size="4" font-family="SegoeUI-Bold, Segoe UI" font-weight="700"><tspan x="0" y="0">L</tspan></text><text id="O-2" data-name="O" transform="translate(54.045 81.092)" fill="#d6b36a" font-size="4" font-family="SegoeUI-Bold, Segoe UI" font-weight="700"><tspan x="0" y="0">O</tspan></text><text id="V" transform="translate(57.35 81.092)" fill="#d6b36a" font-size="4" font-family="SegoeUI-Bold, Segoe UI" font-weight="700"><tspan x="0" y="0">V</tspan></text><text id="E" transform="translate(60.237 81.092)" fill="#d6b36a" font-size="4" font-family="SegoeUI-Bold, Segoe UI" font-weight="700"><tspan x="0" y="0">E</tspan></text><text id="B" transform="translate(18.426 88.305) rotate(28.803)" fill="#d6b36a" font-size="4.98" font-family="SegoeUI-Bold, Segoe UI" font-weight="700"><tspan x="0" y="0">B</tspan></text><text id="O-3" data-name="O" transform="translate(21.582 90.04) rotate(28.803)" fill="#d6b36a" font-size="4.98" font-family="SegoeUI-Bold, Segoe UI" font-weight="700"><tspan x="0" y="0">O</tspan></text><text id="X" transform="translate(24.98 91.909) rotate(28.803)" fill="#d6b36a" font-size="4.98" font-family="SegoeUI-Bold, Segoe UI" font-weight="700"><tspan x="0" y="0">X</tspan></text><text id="I" transform="translate(27.895 93.511) rotate(28.803)" fill="#d6b36a" font-size="4.98" font-family="SegoeUI-Bold, Segoe UI" font-weight="700"><tspan x="0" y="0">I</tspan></text><text id="N" transform="translate(29.109 94.179) rotate(28.803)" fill="#d6b36a" font-size="4.98" font-family="SegoeUI-Bold, Segoe UI" font-weight="700"><tspan x="0" y="0">N</tspan></text><text id="G-3" data-name="G" transform="translate(32.264 95.914) rotate(28.803)" fill="#d6b36a" font-size="4.98" font-family="SegoeUI-Bold, Segoe UI" font-weight="700"><tspan x="0" y="0">G</tspan></text><text id="_" data-name="&amp;" transform="translate(45.752 101.319)" fill="#d6b36a" font-size="6.43" font-family="SegoeUI-Bold, Segoe UI" font-weight="700"><tspan x="0" y="0">&amp;</tspan></text><text id="K" transform="matrix(0.847, -0.531, 0.531, 0.847, 60.718, 97.238)" fill="#d6b36a" font-size="4.81" font-family="SegoeUI-Bold, Segoe UI" font-weight="700"><tspan x="0" y="0">K</tspan></text><text id="I-2" data-name="I" transform="matrix(0.847, -0.531, 0.531, 0.847, 63.662, 95.393)" fill="#d6b36a" font-size="4.81" font-family="SegoeUI-Bold, Segoe UI" font-weight="700"><tspan x="0" y="0">I</tspan></text><text id="C" transform="matrix(0.847, -0.531, 0.531, 0.847, 64.795, 94.683)" fill="#d6b36a" font-size="4.81" font-family="SegoeUI-Bold, Segoe UI" font-weight="700"><tspan x="0" y="0">C</tspan></text><text id="K-2" data-name="K" transform="matrix(0.847, -0.531, 0.531, 0.847, 67.739, 92.838)" fill="#d6b36a" font-size="4.81" font-family="SegoeUI-Bold, Segoe UI" font-weight="700"><tspan x="0" y="0">K</tspan></text><text id="B-2" data-name="B" transform="matrix(0.847, -0.531, 0.531, 0.847, 70.683, 90.994)" fill="#d6b36a" font-size="4.81" font-family="SegoeUI-Bold, Segoe UI" font-weight="700"><tspan x="0" y="0">B</tspan></text><text id="O-4" data-name="O" transform="matrix(0.847, -0.531, 0.531, 0.847, 73.627, 89.149)" fill="#d6b36a" font-size="4.81" font-family="SegoeUI-Bold, Segoe UI" font-weight="700"><tspan x="0" y="0">O</tspan></text><text id="X-2" data-name="X" transform="matrix(0.847, -0.531, 0.531, 0.847, 76.798, 87.162)" fill="#d6b36a" font-size="4.81" font-family="SegoeUI-Bold, Segoe UI" font-weight="700"><tspan x="0" y="0">X</tspan></text><text id="I-3" data-name="I" transform="matrix(0.847, -0.531, 0.531, 0.847, 79.517, 85.458)" fill="#d6b36a" font-size="4.81" font-family="SegoeUI-Bold, Segoe UI" font-weight="700"><tspan x="0" y="0">I</tspan></text><text id="N-2" data-name="N" transform="matrix(0.847, -0.531, 0.531, 0.847, 80.649, 84.748)" fill="#d6b36a" font-size="4.81" font-family="SegoeUI-Bold, Segoe UI" font-weight="700"><tspan x="0" y="0">N</tspan></text><text id="G-4" data-name="G" transform="matrix(0.847, -0.531, 0.531, 0.847, 83.593, 82.904)" fill="#d6b36a" font-size="4.81" font-family="SegoeUI-Bold, Segoe UI" font-weight="700"><tspan x="0" y="0">G</tspan></text></g></g></svg>